<svg width="546.5" height="78.003" viewBox="0 0 546.5 78.003" xmlns="http://www.w3.org/2000/svg"><g id="svgGroup" stroke-linecap="round" fill-rule="evenodd" font-size="9pt" stroke="#000" stroke-width="0.25mm" fill="#000" style="stroke:#000;stroke-width:0.25mm;fill:#000"><path d="M 239.1 45.701 L 239.6 72.401 A 6.631 6.631 0 0 1 239.391 74.109 A 5.035 5.035 0 0 1 238.4 76.051 A 4.35 4.35 0 0 1 237.408 76.949 A 3.454 3.454 0 0 1 235.5 77.501 A 3.54 3.54 0 0 1 232.908 76.391 A 5.008 5.008 0 0 1 232.6 76.051 A 5.86 5.86 0 0 1 231.846 74.903 A 4.159 4.159 0 0 1 231.4 73.051 Q 231.4 71.785 231.534 68.35 A 589.642 589.642 0 0 1 231.6 66.701 A 1170.38 1170.38 0 0 0 231.844 56.564 Q 231.922 52.555 231.961 48.901 A 651.339 651.339 0 0 0 232 41.951 Q 232 33.874 231.942 28.493 A 517.242 517.242 0 0 0 231.9 25.451 Q 231.824 20.896 231.718 17.806 A 191.694 191.694 0 0 0 231.65 16.051 Q 231.522 13.096 231.503 12.159 A 13.603 13.603 0 0 1 231.5 11.901 Q 230.465 12.074 230.025 12.097 A 2.349 2.349 0 0 1 229.9 12.101 A 3.89 3.89 0 0 1 228.661 11.92 Q 226.9 11.329 226.9 8.801 A 4.382 4.382 0 0 1 228.306 5.653 Q 229.785 4.162 232.818 3.015 A 28.958 28.958 0 0 1 234.8 2.351 Q 242.7 0.001 248.9 0.001 A 45.106 45.106 0 0 1 257.31 0.735 Q 262.046 1.635 265.748 3.638 A 22.545 22.545 0 0 1 270.6 7.151 A 25.313 25.313 0 0 1 275.711 13.835 A 21.504 21.504 0 0 1 278.1 23.851 A 21.492 21.492 0 0 1 271.336 39.645 A 28.702 28.702 0 0 1 270.65 40.301 A 25.615 25.615 0 0 1 256.309 46.894 A 35.003 35.003 0 0 1 251.6 47.201 A 55.94 55.94 0 0 1 245.171 46.849 A 40.991 40.991 0 0 1 239.1 45.701 Z M 8.2 5.601 L 7.7 39.301 Q 7.7 49.401 8.1 69.401 A 57.28 57.28 0 0 0 11.197 69.686 Q 14.417 69.901 18.65 69.901 Q 25.1 69.901 30.45 69.551 A 490.294 490.294 0 0 1 32.319 69.432 Q 36.072 69.201 37.25 69.201 A 4.163 4.163 0 0 1 39.218 69.709 A 5.694 5.694 0 0 1 40.05 70.251 A 3.359 3.359 0 0 1 41.383 72.703 A 4.482 4.482 0 0 1 41.4 73.101 A 3.862 3.862 0 0 1 41.177 74.44 A 3.36 3.36 0 0 1 40.05 75.951 A 4.667 4.667 0 0 1 38.42 76.751 Q 37.749 76.938 36.952 76.985 A 9.34 9.34 0 0 1 36.4 77.001 L 21.3 76.501 L 5.1 77.001 Q 2.8 77.001 1.4 75.701 Q 0 74.401 0 71.901 L 0.5 39.301 L 0 5.601 A 7.838 7.838 0 0 1 0.142 4.064 Q 0.331 3.119 0.771 2.38 A 4.512 4.512 0 0 1 1.1 1.901 A 3.539 3.539 0 0 1 3.692 0.518 A 4.821 4.821 0 0 1 4.1 0.501 A 4.137 4.137 0 0 1 5.5 0.728 A 3.512 3.512 0 0 1 7.1 1.901 Q 8.124 3.204 8.195 5.288 A 9.238 9.238 0 0 1 8.2 5.601 Z M 317.981 25.688 A 23.506 23.506 0 0 0 312.15 25.001 Q 304.1 25.001 297.95 30.801 A 27.739 27.739 0 0 0 293.29 36.545 A 31.669 31.669 0 0 0 289.6 45.601 Q 288.419 45.01 287.496 44.807 A 4.188 4.188 0 0 0 286.6 44.701 A 3.364 3.364 0 0 0 286.563 44.701 A 2.79 2.79 0 0 0 284.55 45.551 A 2.691 2.691 0 0 0 284.412 45.699 Q 283.968 46.217 283.801 46.947 A 4.276 4.276 0 0 0 283.7 47.901 A 4.228 4.228 0 0 0 285.177 51.145 Q 285.886 51.789 286.935 52.305 A 13.563 13.563 0 0 0 289 53.101 A 35.637 35.637 0 0 0 289.159 55.162 A 28.354 28.354 0 0 0 295.6 70.701 A 19.479 19.479 0 0 0 304.631 76.887 A 23.916 23.916 0 0 0 312.1 78.001 Q 318.8 78.001 324.55 74.401 Q 330.3 70.801 330.3 68.001 A 3.201 3.201 0 0 0 330.3 67.967 A 2.508 2.508 0 0 0 329.55 66.151 A 2.462 2.462 0 0 0 328.417 65.506 A 3.382 3.382 0 0 0 327.55 65.401 A 1.968 1.968 0 0 0 326.921 65.532 Q 325.819 65.918 323.703 67.447 A 52.8 52.8 0 0 0 322.3 68.501 Q 321.269 69.257 319.576 69.943 A 26.276 26.276 0 0 1 317.9 70.551 A 18.28 18.28 0 0 1 315.751 71.111 A 21.379 21.379 0 0 1 311.6 71.501 A 12.487 12.487 0 0 1 304.689 69.403 A 18.048 18.048 0 0 1 301.25 66.451 Q 296.6 61.401 296 54.401 Q 300.688 55.339 304.477 55.69 A 45.912 45.912 0 0 0 308.7 55.901 Q 317.8 55.901 324.05 52.151 Q 327.81 49.895 329.308 46.391 A 13.077 13.077 0 0 0 330.3 41.201 A 19.834 19.834 0 0 0 330.28 40.312 A 14.772 14.772 0 0 0 325.25 29.501 A 17.114 17.114 0 0 0 317.981 25.688 Z M 412.681 25.688 A 23.506 23.506 0 0 0 406.85 25.001 Q 398.8 25.001 392.65 30.801 A 27.739 27.739 0 0 0 387.99 36.545 A 31.669 31.669 0 0 0 384.3 45.601 Q 383.119 45.01 382.196 44.807 A 4.188 4.188 0 0 0 381.3 44.701 A 3.364 3.364 0 0 0 381.263 44.701 A 2.79 2.79 0 0 0 379.25 45.551 A 2.691 2.691 0 0 0 379.112 45.699 Q 378.668 46.217 378.501 46.947 A 4.276 4.276 0 0 0 378.4 47.901 A 4.228 4.228 0 0 0 379.877 51.145 Q 380.586 51.789 381.635 52.305 A 13.563 13.563 0 0 0 383.7 53.101 A 35.637 35.637 0 0 0 383.859 55.162 A 28.354 28.354 0 0 0 390.3 70.701 A 19.479 19.479 0 0 0 399.331 76.887 A 23.916 23.916 0 0 0 406.8 78.001 Q 413.5 78.001 419.25 74.401 Q 425 70.801 425 68.001 A 3.201 3.201 0 0 0 425 67.967 A 2.508 2.508 0 0 0 424.25 66.151 A 2.462 2.462 0 0 0 423.117 65.506 A 3.382 3.382 0 0 0 422.25 65.401 A 1.968 1.968 0 0 0 421.621 65.532 Q 420.519 65.918 418.403 67.447 A 52.8 52.8 0 0 0 417 68.501 Q 415.969 69.257 414.276 69.943 A 26.276 26.276 0 0 1 412.6 70.551 A 18.28 18.28 0 0 1 410.451 71.111 A 21.379 21.379 0 0 1 406.3 71.501 A 12.487 12.487 0 0 1 399.389 69.403 A 18.048 18.048 0 0 1 395.95 66.451 Q 391.3 61.401 390.7 54.401 Q 395.388 55.339 399.177 55.69 A 45.912 45.912 0 0 0 403.4 55.901 Q 412.5 55.901 418.75 52.151 Q 422.51 49.895 424.008 46.391 A 13.077 13.077 0 0 0 425 41.201 A 19.834 19.834 0 0 0 424.98 40.312 A 14.772 14.772 0 0 0 419.95 29.501 A 17.114 17.114 0 0 0 412.681 25.688 Z M 112.605 66.337 A 3.389 3.389 0 0 0 111.6 66.201 A 2.234 2.234 0 0 0 111.008 66.292 Q 110.397 66.462 109.568 66.948 A 14.73 14.73 0 0 0 108.7 67.501 A 24.312 24.312 0 0 1 105.349 69.523 A 18.204 18.204 0 0 1 97.2 71.501 A 16.78 16.78 0 0 1 90.025 69.98 A 17.452 17.452 0 0 1 84.3 65.601 A 20.419 20.419 0 0 1 80.568 59.542 A 22.055 22.055 0 0 1 79.1 51.401 A 26.022 26.022 0 0 1 79.12 50.373 A 20.28 20.28 0 0 1 84.25 37.301 A 21.257 21.257 0 0 1 85.902 35.63 A 15.097 15.097 0 0 1 96.3 31.501 Q 101.7 31.501 106.9 35.901 A 11.199 11.199 0 0 0 107.155 36.119 Q 108.698 37.401 109.9 37.401 A 2.913 2.913 0 0 0 111.338 37.031 A 3.632 3.632 0 0 0 112.2 36.351 A 3.496 3.496 0 0 0 113.009 34.996 A 4.205 4.205 0 0 0 113.2 33.701 A 3.87 3.87 0 0 0 112.946 32.336 Q 112.09 30.049 108.35 27.851 A 19.964 19.964 0 0 0 103.485 25.805 A 23.712 23.712 0 0 0 97.2 25.001 A 32.085 32.085 0 0 0 94.738 25.094 A 23.336 23.336 0 0 0 78.65 32.751 A 26.613 26.613 0 0 0 73.59 40.731 A 28.497 28.497 0 0 0 71.6 51.501 Q 71.6 62.501 78.6 70.251 A 23.605 23.605 0 0 0 85.529 75.617 A 23.219 23.219 0 0 0 96.1 78.001 Q 102.5 78.001 108.3 74.751 Q 114.1 71.501 114.1 68.851 Q 114.1 66.801 112.605 66.337 Z M 187 52.301 A 84.145 84.145 0 0 0 187.13 57.132 Q 187.262 59.417 187.527 61.368 A 35.172 35.172 0 0 0 188.1 64.551 A 27.7 27.7 0 0 0 188.564 66.309 Q 189.505 69.423 190.7 69.901 Q 191.3 70.201 192.15 70.301 Q 192.811 70.379 193.169 70.517 A 1.326 1.326 0 0 1 193.35 70.601 A 0.629 0.629 0 0 1 193.626 70.933 Q 193.671 71.05 193.689 71.198 A 1.716 1.716 0 0 1 193.7 71.401 A 8.207 8.207 0 0 1 193.48 73.353 A 5.853 5.853 0 0 1 192.25 75.801 A 4.614 4.614 0 0 1 189.908 77.252 Q 189.01 77.501 187.9 77.501 A 4.071 4.071 0 0 1 184.75 76.019 Q 184.202 75.401 183.744 74.526 A 10.928 10.928 0 0 1 183.4 73.801 A 17.386 17.386 0 0 1 182.364 70.448 Q 182.012 68.759 181.879 66.78 A 37.219 37.219 0 0 1 181.8 64.301 Q 179.3 69.901 174.45 73.701 Q 169.6 77.501 163.55 77.501 Q 157.5 77.501 153.1 73.501 Q 145.1 66.201 145.1 52.601 A 31.687 31.687 0 0 1 147.177 41.006 A 29.371 29.371 0 0 1 151.4 33.601 Q 157.7 25.501 167.6 25.501 Q 175.1 25.501 180.6 30.601 A 10.058 10.058 0 0 1 180.754 28.755 Q 181.331 25.682 184.07 25.511 A 5.302 5.302 0 0 1 184.4 25.501 A 3.859 3.859 0 0 1 188.08 27.655 Q 188.934 29.273 188.995 32.108 A 20.593 20.593 0 0 1 189 32.551 Q 189 39.601 187 52.301 Z M 539.8 52.301 A 84.145 84.145 0 0 0 539.93 57.132 Q 540.062 59.417 540.327 61.368 A 35.172 35.172 0 0 0 540.9 64.551 A 27.7 27.7 0 0 0 541.364 66.309 Q 542.305 69.423 543.5 69.901 Q 544.1 70.201 544.95 70.301 Q 545.611 70.379 545.969 70.517 A 1.326 1.326 0 0 1 546.15 70.601 A 0.629 0.629 0 0 1 546.426 70.933 Q 546.471 71.05 546.489 71.198 A 1.716 1.716 0 0 1 546.5 71.401 A 8.207 8.207 0 0 1 546.28 73.353 A 5.853 5.853 0 0 1 545.05 75.801 A 4.614 4.614 0 0 1 542.708 77.252 Q 541.81 77.501 540.7 77.501 A 4.071 4.071 0 0 1 537.55 76.019 Q 537.002 75.401 536.544 74.526 A 10.928 10.928 0 0 1 536.2 73.801 A 17.386 17.386 0 0 1 535.164 70.448 Q 534.812 68.759 534.679 66.78 A 37.219 37.219 0 0 1 534.6 64.301 Q 532.1 69.901 527.25 73.701 Q 522.4 77.501 516.35 77.501 Q 510.3 77.501 505.9 73.501 Q 497.9 66.201 497.9 52.601 A 31.687 31.687 0 0 1 499.977 41.006 A 29.371 29.371 0 0 1 504.2 33.601 Q 510.5 25.501 520.4 25.501 Q 527.9 25.501 533.4 30.601 A 10.058 10.058 0 0 1 533.554 28.755 Q 534.131 25.682 536.87 25.511 A 5.302 5.302 0 0 1 537.2 25.501 A 3.859 3.859 0 0 1 540.88 27.655 Q 541.734 29.273 541.795 32.108 A 20.593 20.593 0 0 1 541.8 32.551 Q 541.8 39.601 539.8 52.301 Z M 350.1 53.601 L 350.4 72.401 A 10.058 10.058 0 0 1 350.246 74.247 Q 349.67 77.32 346.93 77.491 A 5.302 5.302 0 0 1 346.6 77.501 A 3.859 3.859 0 0 1 342.92 75.347 Q 342.066 73.729 342.005 70.894 A 20.593 20.593 0 0 1 342 70.451 Q 342 63.401 344 50.701 A 57.509 57.509 0 0 0 343.917 47.773 Q 343.76 44.719 343.307 40.584 A 208.697 208.697 0 0 0 343.15 39.201 A 415.51 415.51 0 0 1 342.861 36.657 Q 342.3 31.564 342.3 30.101 Q 342.3 28.301 343.35 26.901 A 3.326 3.326 0 0 1 345.762 25.523 A 4.295 4.295 0 0 1 346.2 25.501 A 3.714 3.714 0 0 1 347.585 25.75 Q 348.443 26.092 349.05 26.901 A 5.218 5.218 0 0 1 349.927 28.652 A 4.87 4.87 0 0 1 350.1 29.951 Q 350.1 31.519 350.055 33.899 A 391.793 391.793 0 0 1 350.05 34.151 Q 350.001 36.639 350 38.318 A 117.749 117.749 0 0 0 350 38.401 A 24.006 24.006 0 0 1 356.217 29.431 A 27.557 27.557 0 0 1 356.25 29.401 Q 359.759 26.181 363.439 25.62 A 10.338 10.338 0 0 1 365 25.501 Q 369.5 25.501 371.95 27.351 Q 374.4 29.201 374.4 31.301 A 6.474 6.474 0 0 1 374.27 32.638 Q 374.092 33.483 373.669 34.127 A 3.727 3.727 0 0 1 373.3 34.601 A 3.644 3.644 0 0 1 370.67 35.796 A 4.93 4.93 0 0 1 370.45 35.801 A 3.939 3.939 0 0 1 368.979 35.496 Q 368.388 35.259 367.768 34.837 A 10.399 10.399 0 0 1 366.65 33.951 A 14.81 14.81 0 0 0 365.736 33.185 Q 364.836 32.497 364.138 32.246 A 2.195 2.195 0 0 0 363.4 32.101 A 4.137 4.137 0 0 0 361.301 32.752 Q 359.007 34.109 356.275 38.296 A 45.957 45.957 0 0 0 355.7 39.201 Q 351.3 46.301 350.1 53.601 Z M 467.2 53.601 L 467.5 72.401 A 10.058 10.058 0 0 1 467.346 74.247 Q 466.77 77.32 464.03 77.491 A 5.302 5.302 0 0 1 463.7 77.501 A 3.859 3.859 0 0 1 460.02 75.347 Q 459.166 73.729 459.105 70.894 A 20.593 20.593 0 0 1 459.1 70.451 Q 459.1 63.401 461.1 50.701 A 57.509 57.509 0 0 0 461.017 47.773 Q 460.86 44.719 460.407 40.584 A 208.697 208.697 0 0 0 460.25 39.201 A 415.51 415.51 0 0 1 459.961 36.657 Q 459.4 31.564 459.4 30.101 Q 459.4 28.301 460.45 26.901 A 3.326 3.326 0 0 1 462.862 25.523 A 4.295 4.295 0 0 1 463.3 25.501 A 3.714 3.714 0 0 1 464.685 25.75 Q 465.543 26.092 466.15 26.901 A 5.218 5.218 0 0 1 467.027 28.652 A 4.87 4.87 0 0 1 467.2 29.951 Q 467.2 31.519 467.155 33.899 A 391.793 391.793 0 0 1 467.15 34.151 Q 467.101 36.639 467.1 38.318 A 117.749 117.749 0 0 0 467.1 38.401 A 24.006 24.006 0 0 1 473.317 29.431 A 27.557 27.557 0 0 1 473.35 29.401 Q 476.859 26.181 480.539 25.62 A 10.338 10.338 0 0 1 482.1 25.501 Q 486.6 25.501 489.05 27.351 Q 491.5 29.201 491.5 31.301 A 6.474 6.474 0 0 1 491.37 32.638 Q 491.192 33.483 490.769 34.127 A 3.727 3.727 0 0 1 490.4 34.601 A 3.644 3.644 0 0 1 487.77 35.796 A 4.93 4.93 0 0 1 487.55 35.801 A 3.939 3.939 0 0 1 486.079 35.496 Q 485.488 35.259 484.868 34.837 A 10.399 10.399 0 0 1 483.75 33.951 A 14.81 14.81 0 0 0 482.836 33.185 Q 481.936 32.497 481.238 32.246 A 2.195 2.195 0 0 0 480.5 32.101 A 4.137 4.137 0 0 0 478.401 32.752 Q 476.107 34.109 473.375 38.296 A 45.957 45.957 0 0 0 472.8 39.201 Q 468.4 46.301 467.2 53.601 Z M 59.6 30.501 L 59.1 51.501 L 59.6 72.501 Q 59.6 77.501 55.8 77.501 A 4.046 4.046 0 0 1 54.06 77.153 Q 52 76.183 52 72.501 L 52.5 51.501 L 52 30.501 Q 52 25.501 55.8 25.501 A 4.046 4.046 0 0 1 57.54 25.849 Q 59.6 26.819 59.6 30.501 Z M 132.9 30.501 L 132.4 51.501 L 132.9 72.501 Q 132.9 77.501 129.1 77.501 A 4.046 4.046 0 0 1 127.36 77.153 Q 125.3 76.183 125.3 72.501 L 125.8 51.501 L 125.3 30.501 Q 125.3 25.501 129.1 25.501 A 4.046 4.046 0 0 1 130.84 25.849 Q 132.9 26.819 132.9 30.501 Z M 444.9 30.501 L 444.4 51.501 L 444.9 72.501 Q 444.9 77.501 441.1 77.501 A 4.046 4.046 0 0 1 439.36 77.153 Q 437.3 76.183 437.3 72.501 L 437.8 51.501 L 437.3 30.501 Q 437.3 25.501 441.1 25.501 A 4.046 4.046 0 0 1 442.84 25.849 Q 444.9 26.819 444.9 30.501 Z M 249.5 6.901 Q 242.3 6.901 239.2 8.701 Q 238.924 12.845 238.902 22.162 A 698.953 698.953 0 0 0 238.9 23.801 Q 238.9 34.401 239.1 38.901 Q 244.7 40.601 252.1 40.601 Q 259.5 40.601 265.1 35.801 A 17.961 17.961 0 0 0 268.458 32.06 A 13.299 13.299 0 0 0 270.7 24.601 Q 270.7 16.701 265.15 11.801 A 18.248 18.248 0 0 0 258.217 8.051 Q 254.392 6.901 249.5 6.901 Z M 181.2 53.201 L 180.7 37.801 A 24.64 24.64 0 0 0 176.51 34.499 Q 173.416 32.596 170.185 32.143 A 14.628 14.628 0 0 0 168.15 32.001 A 13.277 13.277 0 0 0 158.767 35.859 A 19.563 19.563 0 0 0 156.9 37.901 A 21.528 21.528 0 0 0 152.274 50.025 A 27.505 27.505 0 0 0 152.2 52.051 A 36.695 36.695 0 0 0 152.629 57.831 Q 153.344 62.307 155.25 65.651 A 12.163 12.163 0 0 0 157.519 68.579 A 9.043 9.043 0 0 0 163.9 71.001 A 12.409 12.409 0 0 0 171.243 68.556 A 18.519 18.519 0 0 0 174.1 66.001 A 30.177 30.177 0 0 0 178.796 59.128 A 40.596 40.596 0 0 0 181.2 53.201 Z M 534 53.201 L 533.5 37.801 A 24.64 24.64 0 0 0 529.31 34.499 Q 526.216 32.596 522.985 32.143 A 14.628 14.628 0 0 0 520.95 32.001 A 13.277 13.277 0 0 0 511.567 35.859 A 19.563 19.563 0 0 0 509.7 37.901 A 21.528 21.528 0 0 0 505.074 50.025 A 27.505 27.505 0 0 0 505 52.051 A 36.695 36.695 0 0 0 505.429 57.831 Q 506.144 62.307 508.05 65.651 A 12.163 12.163 0 0 0 510.319 68.579 A 9.043 9.043 0 0 0 516.7 71.001 A 12.409 12.409 0 0 0 524.043 68.556 A 18.519 18.519 0 0 0 526.9 66.001 A 30.177 30.177 0 0 0 531.596 59.128 A 40.596 40.596 0 0 0 534 53.201 Z M 308.35 49.601 A 32.261 32.261 0 0 0 312.626 49.335 Q 314.792 49.045 316.586 48.438 A 14.781 14.781 0 0 0 319.15 47.301 A 9.964 9.964 0 0 0 321.198 45.794 A 6.318 6.318 0 0 0 323.2 41.101 Q 323.2 37.201 320.55 34.351 Q 317.9 31.501 313 31.501 A 14.332 14.332 0 0 0 302.399 35.924 A 17.838 17.838 0 0 0 301.9 36.451 Q 297.4 41.401 296.1 48.001 A 39.619 39.619 0 0 0 303.072 49.337 A 50.973 50.973 0 0 0 308.35 49.601 Z M 403.05 49.601 A 32.261 32.261 0 0 0 407.326 49.335 Q 409.492 49.045 411.286 48.438 A 14.781 14.781 0 0 0 413.85 47.301 A 9.964 9.964 0 0 0 415.898 45.794 A 6.318 6.318 0 0 0 417.9 41.101 Q 417.9 37.201 415.25 34.351 Q 412.6 31.501 407.7 31.501 A 14.332 14.332 0 0 0 397.099 35.924 A 17.838 17.838 0 0 0 396.6 36.451 Q 392.1 41.401 390.8 48.001 A 39.619 39.619 0 0 0 397.772 49.337 A 50.973 50.973 0 0 0 403.05 49.601 Z M 57.505 4.133 A 5.158 5.158 0 0 0 56.3 4.001 A 4.283 4.283 0 0 0 54.022 4.626 A 5.144 5.144 0 0 0 52.75 5.751 Q 51.3 7.501 51.3 9.801 Q 51.3 10.879 51.531 11.76 A 4.966 4.966 0 0 0 52.35 13.501 A 3.34 3.34 0 0 0 54.235 14.75 A 4.991 4.991 0 0 0 55.5 14.901 A 3.776 3.776 0 0 0 58.031 13.954 A 5.606 5.606 0 0 0 59 12.851 Q 60.4 10.801 60.4 8.751 A 7.004 7.004 0 0 0 60.26 7.312 A 4.958 4.958 0 0 0 59.4 5.351 A 3.203 3.203 0 0 0 57.505 4.133 Z M 130.805 4.133 A 5.158 5.158 0 0 0 129.6 4.001 A 4.283 4.283 0 0 0 127.322 4.626 A 5.144 5.144 0 0 0 126.05 5.751 Q 124.6 7.501 124.6 9.801 Q 124.6 10.879 124.831 11.76 A 4.966 4.966 0 0 0 125.65 13.501 A 3.34 3.34 0 0 0 127.535 14.75 A 4.991 4.991 0 0 0 128.8 14.901 A 3.776 3.776 0 0 0 131.331 13.954 A 5.606 5.606 0 0 0 132.3 12.851 Q 133.7 10.801 133.7 8.751 A 7.004 7.004 0 0 0 133.56 7.312 A 4.958 4.958 0 0 0 132.7 5.351 A 3.203 3.203 0 0 0 130.805 4.133 Z M 442.805 4.133 A 5.158 5.158 0 0 0 441.6 4.001 A 4.283 4.283 0 0 0 439.322 4.626 A 5.144 5.144 0 0 0 438.05 5.751 Q 436.6 7.501 436.6 9.801 Q 436.6 10.879 436.831 11.76 A 4.966 4.966 0 0 0 437.65 13.501 A 3.34 3.34 0 0 0 439.535 14.75 A 4.991 4.991 0 0 0 440.8 14.901 A 3.776 3.776 0 0 0 443.331 13.954 A 5.606 5.606 0 0 0 444.3 12.851 Q 445.7 10.801 445.7 8.751 A 7.004 7.004 0 0 0 445.56 7.312 A 4.958 4.958 0 0 0 444.7 5.351 A 3.203 3.203 0 0 0 442.805 4.133 Z" vector-effect="non-scaling-stroke"/></g></svg>